<svg xmlns="http://www.w3.org/2000/svg" width="43.439" height="42.366"><defs><clipPath clipPathUnits="userSpaceOnUse" id="a"><path d="M0 551.986h530.973V0H0z"/></clipPath></defs><g clip-path="url(#a)" transform="matrix(1.33333 0 0 -1.33333 -181.76 592.727)"><path d="M152.608 444.545c-8.995 0-16.288-7.293-16.288-16.29 0-7.197 4.667-13.302 11.14-15.457.815-.149 1.112.354 1.112.786 0 .386-.014 1.411-.022 2.77-4.53-.984-5.487 2.184-5.487 2.184-.74 1.881-1.809 2.382-1.809 2.382-1.479 1.011.112.991.112.991 1.635-.116 2.495-1.679 2.495-1.679 1.453-2.489 3.813-1.77 4.741-1.354.148 1.053.568 1.771 1.034 2.178-3.617.411-7.42 1.81-7.42 8.051 0 1.778.635 3.232 1.677 4.371-.168.412-.727 2.068.16 4.311 0 0 1.367.438 4.48-1.67 1.298.361 2.692.542 4.077.548a15.625 15.625 0 004.078-.548c3.11 2.108 4.475 1.67 4.475 1.67.89-2.243.33-3.899.162-4.31 1.044-1.14 1.675-2.594 1.675-4.372 0-6.258-3.809-7.635-7.438-8.038.585-.503 1.106-1.497 1.106-3.017 0-2.177-.02-3.934-.02-4.468 0-.436.293-.943 1.12-.784 6.468 2.16 11.131 8.26 11.131 15.455 0 8.997-7.294 16.29-16.29 16.29" fill="#1b1817" fill-rule="evenodd"/></g></svg>