<svg id="svg" version="1.1" xmlns="http://www.w3.org/2000/svg" xmlns:xlink="http://www.w3.org/1999/xlink" width="400" height="400" viewBox="0, 0, 400,400"><g id="svgg"><path id="path0" d="M49.067 138.267 C 48.920 138.413,48.800 162.443,48.800 191.667 L 48.800 244.800 62.353 244.800 L 75.907 244.800 76.148 243.900 C 76.281 243.405,76.392 229.027,76.395 211.949 C 76.401 177.419,76.319 178.428,78.834 181.687 C 79.561 182.629,80.436 183.708,80.778 184.084 C 81.120 184.461,81.711 185.181,82.092 185.684 C 83.618 187.704,86.656 191.516,87.211 192.107 C 87.535 192.453,88.160 193.198,88.600 193.764 C 89.040 194.329,89.805 195.253,90.300 195.817 C 90.795 196.380,91.203 196.967,91.206 197.121 C 91.210 197.274,92.034 198.300,93.039 199.400 C 94.043 200.500,95.157 201.850,95.513 202.400 C 96.234 203.512,97.049 204.489,98.100 205.503 C 98.485 205.874,98.803 206.363,98.807 206.589 C 98.811 206.815,99.279 207.442,99.848 207.982 L 100.883 208.964 102.629 206.982 C 103.590 205.892,104.708 204.640,105.114 204.200 C 105.520 203.760,106.646 202.410,107.616 201.200 C 108.585 199.990,109.744 198.633,110.190 198.185 C 110.635 197.737,111.630 196.596,112.400 195.649 C 113.170 194.703,114.008 193.705,114.261 193.432 C 114.515 193.158,115.678 191.779,116.845 190.367 C 118.013 188.955,119.167 187.620,119.411 187.400 C 119.654 187.180,120.651 186.018,121.627 184.819 C 122.602 183.619,123.805 182.197,124.300 181.660 C 124.795 181.123,125.200 180.529,125.200 180.342 C 125.200 179.740,126.306 179.977,126.557 180.633 C 126.691 180.981,126.800 194.998,126.800 211.783 C 126.800 228.567,126.913 242.862,127.050 243.550 L 127.300 244.800 140.850 244.800 L 154.400 244.800 154.400 191.400 L 154.400 138.000 140.656 138.000 L 126.912 138.000 126.156 139.052 C 125.740 139.631,125.040 140.522,124.600 141.033 C 123.721 142.053,123.768 141.993,119.165 148.000 C 117.394 150.310,115.283 152.984,114.473 153.943 C 113.663 154.902,112.832 155.982,112.626 156.343 C 112.420 156.704,112.060 157.213,111.826 157.473 C 111.592 157.734,110.870 158.679,110.223 159.573 C 109.576 160.468,108.901 161.200,108.723 161.200 C 108.545 161.200,108.400 161.389,108.400 161.620 C 108.400 161.851,107.222 163.516,105.782 165.320 C 104.342 167.124,102.769 169.095,102.286 169.700 C 100.809 171.552,100.075 171.096,96.600 166.169 C 95.720 164.921,94.235 162.901,93.300 161.680 C 92.365 160.459,91.600 159.321,91.600 159.151 C 91.600 158.980,91.133 158.337,90.561 157.721 C 89.372 156.438,87.200 153.303,87.200 152.869 C 87.200 152.709,86.885 152.279,86.500 151.914 C 85.448 150.917,82.933 147.498,78.909 141.600 C 76.281 137.747,77.564 138.028,62.567 138.013 C 55.288 138.006,49.213 138.120,49.067 138.267 M225.200 138.453 C 224.650 138.674,222.580 139.045,220.600 139.278 C 218.620 139.510,216.550 139.924,216.000 140.198 C 215.450 140.472,214.102 140.827,213.005 140.987 C 211.908 141.147,210.522 141.530,209.925 141.839 C 209.328 142.147,208.550 142.400,208.195 142.400 C 207.612 142.400,206.504 142.862,201.374 145.245 C 200.479 145.660,199.617 146.000,199.457 146.000 C 199.297 146.000,198.949 146.183,198.683 146.406 C 197.668 147.258,195.247 148.731,194.441 148.987 C 193.979 149.134,193.600 149.400,193.600 149.578 C 193.600 149.757,193.073 150.121,192.429 150.388 C 191.785 150.655,191.160 151.127,191.041 151.437 C 190.922 151.746,190.648 152.000,190.431 152.000 C 190.214 152.000,189.608 152.405,189.084 152.900 C 188.561 153.395,187.337 154.534,186.366 155.432 C 183.698 157.897,181.380 160.582,179.911 162.908 C 179.185 164.059,178.364 165.360,178.087 165.800 C 177.810 166.240,177.320 167.173,176.998 167.873 C 176.676 168.573,176.243 169.250,176.037 169.377 C 175.830 169.505,175.540 170.192,175.392 170.905 C 175.243 171.617,174.892 172.564,174.611 173.009 C 174.331 173.454,173.971 174.624,173.812 175.609 C 173.653 176.594,173.293 177.765,173.011 178.210 C 172.730 178.656,172.372 180.186,172.216 181.610 C 172.061 183.035,171.678 185.216,171.367 186.458 C 170.600 189.514,170.599 201.375,171.365 205.074 C 171.675 206.573,172.060 209.232,172.220 210.982 C 172.379 212.732,172.737 214.712,173.016 215.382 C 173.294 216.052,173.655 217.674,173.818 218.988 C 173.981 220.301,174.336 221.921,174.608 222.588 C 174.879 223.254,175.224 224.651,175.374 225.691 C 175.524 226.731,175.804 227.679,175.996 227.798 C 176.189 227.917,176.559 229.039,176.819 230.291 C 177.079 231.543,177.523 232.935,177.807 233.384 C 178.090 233.833,178.446 234.797,178.598 235.527 C 178.751 236.257,179.127 237.337,179.435 237.927 C 179.743 238.517,179.997 239.360,180.000 239.800 C 180.003 240.240,180.363 241.140,180.800 241.800 C 181.237 242.460,181.597 243.360,181.600 243.800 C 181.603 244.240,181.963 245.140,182.400 245.800 C 182.837 246.460,183.196 247.316,183.197 247.701 C 183.199 248.087,183.560 249.075,184.000 249.896 C 184.440 250.716,184.800 251.632,184.800 251.931 C 184.800 252.230,185.160 252.931,185.600 253.491 C 186.040 254.050,186.400 254.771,186.400 255.092 C 186.400 255.414,186.669 256.154,186.997 256.738 C 187.326 257.322,187.770 258.293,187.985 258.895 C 188.487 260.300,191.499 259.171,194.302 256.526 C 194.579 256.266,195.164 255.938,195.602 255.799 C 196.041 255.660,196.400 255.373,196.400 255.160 C 196.400 254.948,196.715 254.654,197.100 254.506 C 197.485 254.359,198.581 253.689,199.535 253.019 C 200.490 252.349,201.570 251.616,201.935 251.392 C 202.301 251.167,203.392 250.447,204.360 249.792 C 205.328 249.136,206.392 248.420,206.725 248.200 C 207.058 247.980,207.616 247.566,207.965 247.279 C 208.314 246.993,209.050 246.419,209.600 246.004 C 210.442 245.370,210.524 245.135,210.122 244.525 C 208.276 241.725,202.800 229.534,202.800 228.224 C 202.800 227.879,202.440 226.925,202.000 226.104 C 201.560 225.284,201.200 224.105,201.200 223.486 C 201.200 222.867,200.933 221.845,200.608 221.215 C 200.282 220.584,199.897 219.018,199.753 217.734 C 199.609 216.451,199.322 215.073,199.117 214.673 C 198.321 213.125,198.084 210.029,198.721 209.499 C 199.528 208.829,231.165 208.539,232.383 209.191 C 233.173 209.614,233.194 210.025,233.296 227.312 L 233.400 245.000 248.400 245.000 L 263.400 245.000 263.502 204.700 L 263.604 164.400 252.063 164.400 C 245.716 164.400,238.875 164.517,236.861 164.660 L 233.200 164.920 233.200 176.217 C 233.200 186.150,233.124 187.544,232.567 187.757 C 231.439 188.190,206.006 188.031,205.174 187.586 C 204.153 187.040,204.165 184.743,205.200 182.600 C 205.625 181.720,205.979 180.578,205.986 180.062 C 205.994 179.546,206.253 178.646,206.562 178.062 C 206.871 177.478,207.636 175.920,208.262 174.600 C 210.345 170.206,215.848 163.600,217.426 163.600 C 217.688 163.600,218.117 163.342,218.379 163.026 C 218.641 162.710,219.428 162.329,220.128 162.180 C 220.827 162.030,221.652 161.703,221.961 161.454 C 222.358 161.133,229.114 160.941,245.028 160.800 C 269.272 160.585,268.299 160.665,267.410 158.960 C 267.077 158.322,266.798 157.260,266.790 156.600 C 266.781 155.940,266.523 155.068,266.216 154.663 C 265.909 154.258,265.535 153.178,265.385 152.263 C 265.236 151.348,264.885 150.330,264.607 150.000 C 264.329 149.670,263.975 148.680,263.821 147.800 C 263.667 146.920,263.312 145.840,263.033 145.400 C 262.754 144.960,262.401 143.812,262.250 142.849 C 262.098 141.886,261.710 140.721,261.387 140.260 C 261.064 139.799,260.800 139.102,260.800 138.711 C 260.800 137.882,227.224 137.639,225.200 138.453 M286.400 191.400 L 286.400 244.800 316.392 244.800 L 346.385 244.800 346.613 243.700 C 346.739 243.095,347.089 242.060,347.391 241.400 C 347.693 240.740,348.058 239.300,348.202 238.200 C 348.345 237.100,348.692 235.840,348.972 235.400 C 349.253 234.960,349.605 233.700,349.755 232.600 C 349.906 231.500,350.280 229.970,350.589 229.200 C 350.897 228.430,351.261 226.949,351.398 225.909 C 351.534 224.869,351.816 223.914,352.023 223.786 C 354.083 222.512,352.578 222.400,333.480 222.400 C 319.298 222.400,314.440 222.280,314.080 221.920 C 313.713 221.553,313.600 211.636,313.600 179.720 L 313.600 138.000 300.000 138.000 L 286.400 138.000 286.400 191.400 " stroke="none" fill="#fbfbfb" fill-rule="evenodd"></path><path id="path1" d="M0.000 200.000 L 0.000 400.000 200.000 400.000 L 400.000 400.000 400.000 200.000 L 400.000 0.000 200.000 0.000 L 0.000 0.000 0.000 200.000 M77.984 138.075 C 78.433 138.557,78.800 139.187,78.800 139.475 C 78.800 139.764,78.984 140.000,79.210 140.000 C 79.435 140.000,79.791 140.450,80.000 141.000 C 80.209 141.550,80.547 142.000,80.751 142.000 C 81.075 142.000,82.696 144.295,83.152 145.400 C 83.243 145.620,83.966 146.610,84.759 147.600 C 86.851 150.213,88.000 151.909,88.000 152.384 C 88.000 152.613,88.162 152.800,88.360 152.800 C 88.674 152.800,89.209 153.527,91.000 156.390 C 91.410 157.045,91.680 157.374,93.406 159.321 C 93.953 159.937,94.400 160.642,94.400 160.887 C 94.400 161.132,94.670 161.618,95.001 161.966 C 95.783 162.792,98.337 166.193,99.604 168.097 C 100.647 169.665,101.200 169.989,101.200 169.033 C 101.200 168.722,101.357 168.407,101.548 168.333 C 101.740 168.260,102.842 166.940,103.998 165.400 C 105.153 163.860,106.347 162.330,106.650 162.000 C 107.149 161.458,111.562 155.775,113.017 153.800 C 114.633 151.608,115.836 150.169,116.293 149.880 C 116.572 149.704,116.800 149.359,116.800 149.114 C 116.800 148.868,117.070 148.382,117.401 148.034 C 118.731 146.631,121.600 142.830,121.600 142.470 C 121.600 142.258,121.848 141.990,122.151 141.874 C 122.454 141.758,123.298 140.744,124.026 139.620 C 125.714 137.014,124.667 137.158,141.000 137.288 L 155.000 137.400 155.101 191.157 C 155.176 230.553,155.083 245.060,154.752 245.457 C 154.134 246.203,127.222 246.262,126.480 245.520 C 126.115 245.155,125.997 237.422,125.988 213.220 C 125.979 188.971,125.866 181.590,125.514 182.197 C 125.260 182.635,124.455 183.556,123.726 184.244 C 122.997 184.932,122.400 185.689,122.400 185.927 C 122.400 186.165,122.146 186.504,121.836 186.680 C 121.526 186.856,120.340 188.170,119.200 189.600 C 118.060 191.030,116.874 192.344,116.564 192.520 C 116.254 192.696,116.000 192.996,116.000 193.187 C 116.000 193.378,115.325 194.266,114.500 195.159 C 113.675 196.052,112.640 197.252,112.200 197.825 C 111.274 199.032,109.044 201.660,107.600 203.249 C 107.050 203.854,106.060 205.032,105.400 205.868 C 101.292 211.067,99.984 211.026,96.342 205.583 C 95.980 205.043,95.349 204.240,94.940 203.800 C 94.531 203.360,93.209 201.695,92.002 200.100 C 90.796 198.505,89.699 197.200,89.566 197.200 C 89.433 197.200,88.377 195.862,87.218 194.226 C 86.060 192.590,84.862 191.156,84.556 191.039 C 84.250 190.921,84.000 190.589,84.000 190.301 C 84.000 190.013,83.685 189.488,83.300 189.134 C 82.915 188.781,82.240 188.014,81.800 187.430 C 81.360 186.846,80.595 185.899,80.100 185.326 C 79.605 184.752,79.200 184.039,79.200 183.742 C 79.200 183.444,78.958 183.200,78.661 183.200 C 78.365 183.200,77.927 182.795,77.688 182.300 C 77.372 181.644,77.247 190.039,77.227 213.220 C 77.206 237.405,77.085 245.155,76.720 245.520 C 76.365 245.875,72.676 246.000,62.600 246.000 C 52.524 246.000,48.835 245.875,48.480 245.520 C 47.956 244.996,47.745 137.989,48.267 137.467 C 49.108 136.625,77.169 137.200,77.984 138.075 M261.971 138.254 C 262.427 138.834,262.800 139.781,262.800 140.360 C 262.800 140.938,263.134 142.039,263.541 142.806 C 263.949 143.573,264.412 144.901,264.570 145.758 C 264.729 146.616,265.095 147.696,265.384 148.158 C 265.674 148.621,266.035 149.711,266.188 150.580 C 266.341 151.448,266.721 152.523,267.033 152.969 C 267.345 153.414,267.600 154.236,267.600 154.795 C 267.600 155.354,267.960 156.484,268.400 157.304 C 269.307 158.996,269.426 160.414,268.720 161.120 C 268.359 161.481,263.024 161.600,247.169 161.600 C 229.344 161.600,225.876 161.692,224.662 162.200 C 223.872 162.530,222.815 162.803,222.313 162.806 C 221.811 162.809,220.950 163.071,220.400 163.389 C 219.850 163.706,219.036 164.133,218.591 164.338 C 216.397 165.349,210.572 171.968,209.836 174.286 C 209.689 174.749,209.306 175.346,208.985 175.613 C 208.663 175.880,208.399 176.571,208.397 177.149 C 208.396 177.727,208.037 178.740,207.600 179.400 C 207.163 180.060,206.802 181.050,206.798 181.600 C 206.794 182.150,206.539 183.545,206.231 184.700 L 205.672 186.800 219.036 186.800 L 232.400 186.800 232.400 175.680 C 232.400 167.564,232.530 164.430,232.880 164.080 C 233.820 163.140,263.875 163.420,264.386 164.374 C 264.663 164.892,264.800 178.231,264.800 204.800 C 264.800 231.369,264.663 244.708,264.386 245.226 C 263.804 246.314,233.058 246.451,232.643 245.367 C 232.509 245.019,232.400 236.919,232.400 227.367 L 232.400 210.000 215.751 210.000 C 201.387 210.000,199.167 210.078,199.575 210.570 C 199.835 210.884,200.190 212.550,200.364 214.274 C 200.538 215.998,200.977 217.982,201.340 218.684 C 201.703 219.386,202.000 220.557,202.000 221.286 C 202.000 222.015,202.360 223.284,202.800 224.104 C 203.240 224.925,203.606 226.003,203.614 226.499 C 203.621 226.994,203.975 228.120,204.400 229.000 C 204.825 229.880,205.179 230.932,205.186 231.337 C 205.194 231.742,205.560 232.531,206.000 233.091 C 206.440 233.650,206.800 234.460,206.800 234.891 C 206.800 235.321,207.160 236.131,207.600 236.691 C 208.040 237.250,208.400 238.112,208.400 238.605 C 208.400 239.098,208.663 239.720,208.985 239.987 C 209.306 240.254,209.688 240.847,209.833 241.305 C 209.979 241.764,210.436 242.501,210.849 242.945 C 212.009 244.190,211.837 246.231,210.500 247.082 C 209.895 247.467,209.310 247.894,209.200 248.031 C 209.090 248.168,208.561 248.512,208.025 248.794 C 207.489 249.077,206.859 249.461,206.625 249.648 C 206.391 249.835,205.634 250.441,204.942 250.994 C 204.250 251.547,203.513 252.000,203.304 252.000 C 203.095 252.000,202.598 252.360,202.200 252.800 C 201.802 253.240,201.228 253.600,200.925 253.600 C 200.623 253.600,200.274 253.863,200.150 254.185 C 200.027 254.506,199.548 254.889,199.086 255.036 C 198.625 255.183,197.365 255.999,196.287 256.851 C 195.210 257.703,194.083 258.400,193.784 258.400 C 193.485 258.400,193.096 258.625,192.920 258.900 C 192.420 259.682,190.308 261.041,189.146 261.330 C 187.995 261.616,187.486 261.210,186.996 259.619 C 186.830 259.079,186.448 258.391,186.147 258.090 C 185.846 257.789,185.600 257.276,185.600 256.951 C 185.600 256.625,185.240 255.648,184.800 254.779 C 184.360 253.911,183.640 252.489,183.200 251.621 C 182.760 250.752,182.399 249.717,182.397 249.321 C 182.396 248.924,182.037 248.060,181.600 247.400 C 181.163 246.740,180.804 245.854,180.803 245.431 C 180.801 245.009,180.522 244.356,180.183 243.981 C 179.843 243.606,179.459 242.602,179.329 241.750 C 179.198 240.897,178.861 239.930,178.580 239.600 C 178.298 239.270,177.942 238.323,177.789 237.496 C 177.635 236.668,177.170 235.325,176.755 234.511 C 176.340 233.697,176.000 232.613,176.000 232.101 C 176.000 231.590,175.750 230.773,175.443 230.286 C 175.137 229.799,174.762 228.515,174.609 227.433 C 174.456 226.352,174.098 225.092,173.813 224.633 C 173.528 224.175,173.180 222.754,173.041 221.476 C 172.902 220.198,172.541 218.758,172.239 218.276 C 171.938 217.794,171.576 216.050,171.436 214.400 C 171.295 212.750,170.922 210.680,170.608 209.800 C 169.776 207.475,169.742 184.591,170.568 182.616 C 170.880 181.869,171.265 180.209,171.424 178.929 C 171.582 177.648,172.047 175.973,172.456 175.206 C 172.865 174.439,173.200 173.426,173.200 172.955 C 173.200 172.484,173.465 171.878,173.789 171.609 C 174.114 171.340,174.492 170.514,174.631 169.774 C 174.770 169.034,175.123 168.230,175.416 167.987 C 175.709 167.744,176.064 167.017,176.206 166.372 C 176.348 165.728,176.627 165.200,176.826 165.200 C 177.026 165.200,177.452 164.570,177.774 163.800 C 178.096 163.030,178.548 162.400,178.780 162.400 C 179.011 162.400,179.200 162.156,179.200 161.858 C 179.200 161.561,179.605 160.847,180.100 160.274 C 180.595 159.700,181.540 158.571,182.200 157.766 C 183.827 155.781,186.859 152.800,187.250 152.800 C 187.426 152.800,187.891 152.469,188.284 152.064 C 189.593 150.718,193.264 148.000,193.774 148.000 C 194.050 148.000,194.602 147.640,195.000 147.200 C 195.398 146.760,195.944 146.400,196.213 146.400 C 196.482 146.400,196.917 146.142,197.179 145.826 C 197.441 145.510,198.170 145.138,198.800 145.000 C 199.430 144.862,200.155 144.495,200.413 144.185 C 200.670 143.875,201.486 143.508,202.226 143.369 C 202.966 143.230,203.776 142.870,204.026 142.569 C 204.276 142.268,205.137 141.899,205.940 141.750 C 206.743 141.601,207.760 141.258,208.200 140.987 C 208.640 140.716,209.778 140.379,210.728 140.238 C 211.679 140.097,212.849 139.737,213.328 139.438 C 213.808 139.140,215.352 138.784,216.759 138.648 C 218.167 138.511,219.517 138.236,219.759 138.035 C 220.547 137.384,222.339 137.321,241.871 137.260 L 261.142 137.200 261.971 138.254 M314.386 137.974 C 314.664 138.493,314.800 152.320,314.800 179.974 L 314.800 221.200 333.100 221.240 C 355.409 221.288,355.315 221.266,352.827 226.038 C 352.372 226.910,352.000 228.297,352.000 229.118 C 352.000 229.940,351.640 231.284,351.200 232.104 C 350.760 232.925,350.399 234.273,350.398 235.099 C 350.396 235.924,350.113 237.140,349.768 237.800 C 349.423 238.460,349.044 239.900,348.925 241.000 C 348.806 242.106,348.281 243.670,347.749 244.500 L 346.789 246.000 316.827 246.000 C 300.348 246.000,286.581 245.891,286.233 245.757 C 285.572 245.504,285.209 138.124,285.867 137.467 C 286.631 136.703,313.966 137.189,314.386 137.974 " stroke="none" fill="#2c54a4" fill-rule="evenodd"></path><path id="path2" d="M48.667 137.867 C 48.145 138.389,48.356 244.596,48.880 245.120 C 49.234 245.474,52.836 245.600,62.600 245.600 C 72.364 245.600,75.966 245.474,76.320 245.120 C 76.685 244.755,76.800 237.063,76.800 212.944 C 76.800 195.511,76.941 181.160,77.114 181.053 C 77.287 180.946,79.312 183.218,81.614 186.101 C 83.916 188.985,86.111 191.717,86.490 192.172 C 86.870 192.627,88.392 194.530,89.873 196.400 C 91.355 198.270,92.772 199.980,93.023 200.200 C 93.274 200.420,94.487 201.950,95.719 203.600 C 96.950 205.250,98.611 207.320,99.408 208.200 L 100.857 209.800 102.729 207.776 C 103.758 206.663,105.410 204.792,106.400 203.618 C 109.974 199.382,111.690 197.365,113.391 195.400 C 114.344 194.300,116.121 192.181,117.341 190.692 C 118.561 189.203,119.793 187.744,120.079 187.450 C 120.366 187.157,121.758 185.550,123.172 183.879 C 124.587 182.209,125.892 180.933,126.072 181.045 C 126.253 181.156,126.400 195.511,126.400 212.944 C 126.400 237.063,126.515 244.755,126.880 245.120 C 127.622 245.862,153.734 245.802,154.352 245.057 C 154.683 244.660,154.776 230.258,154.701 191.157 L 154.600 137.800 140.523 137.695 L 126.445 137.590 125.723 138.595 C 125.325 139.149,124.412 140.276,123.692 141.101 C 122.973 141.925,121.893 143.320,121.292 144.200 C 120.692 145.080,118.130 148.431,115.600 151.647 C 113.070 154.863,110.640 158.001,110.200 158.621 C 108.634 160.828,101.135 170.202,100.853 170.306 C 100.695 170.364,99.655 169.194,98.542 167.706 C 95.951 164.242,89.503 155.399,88.314 153.679 C 87.811 152.953,86.680 151.385,85.800 150.194 C 84.920 149.004,82.940 146.269,81.400 144.116 C 79.860 141.964,78.086 139.617,77.459 138.901 L 76.317 137.600 62.625 137.600 C 55.095 137.600,48.813 137.720,48.667 137.867 M221.000 138.476 C 215.111 139.625,206.641 142.022,204.541 143.135 C 204.134 143.351,202.180 144.295,200.200 145.233 C 198.220 146.172,196.150 147.240,195.600 147.607 C 195.050 147.974,193.790 148.798,192.800 149.436 C 191.810 150.075,190.910 150.698,190.800 150.820 C 190.690 150.942,189.430 151.992,188.000 153.153 C 183.574 156.747,176.400 165.826,176.400 167.834 C 176.400 168.092,176.148 168.511,175.839 168.767 C 175.531 169.023,175.165 169.720,175.025 170.316 C 174.886 170.912,174.520 171.940,174.211 172.600 C 171.175 179.095,169.450 195.210,170.741 205.015 C 171.655 211.956,172.401 216.454,172.746 217.111 C 172.945 217.490,173.239 218.790,173.398 220.000 C 173.558 221.210,173.918 222.758,174.199 223.441 C 174.480 224.123,174.841 225.473,175.001 226.441 C 175.162 227.408,175.478 228.552,175.704 228.982 C 175.930 229.411,176.349 230.581,176.634 231.582 C 177.570 234.862,180.007 241.778,180.610 242.862 C 180.934 243.446,181.200 244.168,181.200 244.468 C 181.200 244.767,181.560 245.684,182.000 246.504 C 182.440 247.325,182.800 248.203,182.800 248.455 C 182.800 248.914,183.057 249.504,185.821 255.400 C 186.647 257.160,187.443 259.050,187.590 259.600 C 188.096 261.489,190.219 260.371,202.341 251.827 C 203.298 251.152,204.366 250.420,204.712 250.200 C 205.059 249.980,206.076 249.294,206.971 248.675 C 207.867 248.056,209.094 247.246,209.697 246.875 C 211.156 245.978,211.097 244.950,209.428 242.101 C 208.673 240.814,207.935 239.281,207.788 238.696 C 207.642 238.111,207.269 237.423,206.961 237.167 C 206.652 236.911,206.400 236.447,206.400 236.135 C 206.400 235.823,206.063 234.900,205.652 234.084 C 204.157 231.119,200.000 217.923,200.000 216.144 C 200.000 215.485,199.718 213.994,199.373 212.832 C 198.334 209.334,197.051 209.578,215.889 209.696 L 232.600 209.800 232.810 227.600 C 232.926 237.390,233.061 245.447,233.110 245.505 C 233.160 245.562,240.085 245.562,248.500 245.505 L 263.800 245.400 263.800 204.800 L 263.800 164.200 248.847 164.095 C 238.241 164.021,233.737 164.121,233.353 164.439 C 232.927 164.793,232.790 167.275,232.706 176.144 L 232.600 187.400 219.153 187.505 C 203.397 187.629,204.265 187.869,205.560 183.743 C 206.022 182.270,206.400 180.825,206.400 180.531 C 206.400 180.237,206.760 179.325,207.200 178.504 C 207.640 177.684,208.000 176.794,208.000 176.527 C 208.000 175.025,211.629 169.624,214.472 166.894 C 220.440 161.164,220.240 161.200,245.782 161.200 C 257.930 161.200,267.165 161.042,267.739 160.823 L 268.730 160.446 267.415 156.523 C 266.692 154.365,265.798 151.700,265.429 150.600 C 265.060 149.500,264.509 147.790,264.204 146.800 C 263.251 143.699,262.318 141.063,261.551 139.300 L 260.810 137.600 242.905 137.648 C 226.909 137.690,224.573 137.779,221.000 138.476 M286.272 137.862 C 285.747 138.387,285.953 244.593,286.480 245.120 C 287.060 245.700,345.446 245.812,346.358 245.235 C 347.004 244.825,347.778 242.801,348.587 239.400 C 349.473 235.676,350.027 233.607,350.846 230.972 C 351.261 229.636,351.600 228.237,351.600 227.862 C 351.600 227.487,351.955 226.170,352.389 224.934 C 352.823 223.699,353.083 222.534,352.966 222.344 C 352.849 222.155,344.235 222.000,333.825 222.000 C 318.446 222.000,314.814 221.899,314.451 221.461 C 314.129 221.074,313.975 209.264,313.902 179.361 L 313.800 137.800 300.172 137.695 C 292.676 137.637,286.421 137.712,286.272 137.862 M76.604 138.713 C 77.047 139.091,78.084 140.390,78.909 141.600 C 82.933 147.498,85.448 150.917,86.500 151.914 C 86.885 152.279,87.200 152.709,87.200 152.869 C 87.200 153.303,89.372 156.438,90.561 157.721 C 91.133 158.337,91.600 158.980,91.600 159.151 C 91.600 159.321,92.365 160.459,93.300 161.680 C 94.235 162.901,95.720 164.921,96.600 166.169 C 100.075 171.096,100.809 171.552,102.286 169.700 C 102.769 169.095,104.342 167.124,105.782 165.320 C 107.222 163.516,108.400 161.851,108.400 161.620 C 108.400 161.389,108.545 161.200,108.723 161.200 C 108.901 161.200,109.576 160.468,110.223 159.573 C 110.870 158.679,111.592 157.734,111.826 157.473 C 112.060 157.213,112.420 156.704,112.626 156.343 C 112.832 155.982,113.663 154.902,114.473 153.943 C 115.283 152.984,117.394 150.310,119.165 148.000 C 123.768 141.993,123.721 142.053,124.600 141.033 C 125.040 140.522,125.740 139.631,126.156 139.052 L 126.912 138.000 140.656 138.000 L 154.400 138.000 154.400 191.400 L 154.400 244.800 140.850 244.800 L 127.300 244.800 127.050 243.550 C 126.913 242.862,126.800 228.567,126.800 211.783 C 126.800 194.998,126.691 180.981,126.557 180.633 C 126.306 179.977,125.200 179.740,125.200 180.342 C 125.200 180.529,124.795 181.123,124.300 181.660 C 123.805 182.197,122.602 183.619,121.627 184.819 C 120.651 186.018,119.654 187.180,119.411 187.400 C 119.167 187.620,118.013 188.955,116.845 190.367 C 115.678 191.779,114.515 193.158,114.261 193.432 C 114.008 193.705,113.170 194.703,112.400 195.649 C 111.630 196.596,110.635 197.737,110.190 198.185 C 109.744 198.633,108.585 199.990,107.616 201.200 C 106.646 202.410,105.520 203.760,105.114 204.200 C 104.708 204.640,103.590 205.892,102.629 206.982 L 100.883 208.964 99.848 207.982 C 99.279 207.442,98.811 206.815,98.807 206.589 C 98.803 206.363,98.485 205.874,98.100 205.503 C 97.049 204.489,96.234 203.512,95.513 202.400 C 95.157 201.850,94.043 200.500,93.039 199.400 C 92.034 198.300,91.210 197.274,91.206 197.121 C 91.203 196.967,90.795 196.380,90.300 195.817 C 89.805 195.253,89.040 194.329,88.600 193.764 C 88.160 193.198,87.535 192.453,87.211 192.107 C 86.656 191.516,83.618 187.704,82.092 185.684 C 81.711 185.181,81.120 184.461,80.778 184.084 C 80.436 183.708,79.561 182.629,78.834 181.687 C 76.319 178.428,76.401 177.419,76.395 211.949 C 76.392 229.027,76.281 243.405,76.148 243.900 L 75.907 244.800 62.353 244.800 L 48.800 244.800 48.800 191.667 C 48.800 162.443,48.920 138.413,49.067 138.267 C 49.750 137.584,75.776 138.006,76.604 138.713 M260.800 138.711 C 260.800 139.102,261.064 139.799,261.387 140.260 C 261.710 140.721,262.098 141.886,262.250 142.849 C 262.401 143.812,262.754 144.960,263.033 145.400 C 263.312 145.840,263.667 146.920,263.821 147.800 C 263.975 148.680,264.329 149.670,264.607 150.000 C 264.885 150.330,265.236 151.348,265.385 152.263 C 265.535 153.178,265.909 154.258,266.216 154.663 C 266.523 155.068,266.781 155.940,266.790 156.600 C 266.798 157.260,267.077 158.322,267.410 158.960 C 268.299 160.665,269.272 160.585,245.028 160.800 C 229.114 160.941,222.358 161.133,221.961 161.454 C 221.652 161.703,220.827 162.030,220.128 162.180 C 219.428 162.329,218.641 162.710,218.379 163.026 C 218.117 163.342,217.688 163.600,217.426 163.600 C 215.848 163.600,210.345 170.206,208.262 174.600 C 207.636 175.920,206.871 177.478,206.562 178.062 C 206.253 178.646,205.994 179.546,205.986 180.062 C 205.979 180.578,205.625 181.720,205.200 182.600 C 204.165 184.743,204.153 187.040,205.174 187.586 C 206.006 188.031,231.439 188.190,232.567 187.757 C 233.124 187.544,233.200 186.150,233.200 176.217 L 233.200 164.920 236.861 164.660 C 238.875 164.517,245.716 164.400,252.063 164.400 L 263.604 164.400 263.502 204.700 L 263.400 245.000 248.400 245.000 L 233.400 245.000 233.296 227.312 C 233.194 210.025,233.173 209.614,232.383 209.191 C 231.165 208.539,199.528 208.829,198.721 209.499 C 198.084 210.029,198.321 213.125,199.117 214.673 C 199.322 215.073,199.609 216.451,199.753 217.734 C 199.897 219.018,200.282 220.584,200.608 221.215 C 200.933 221.845,201.200 222.867,201.200 223.486 C 201.200 224.105,201.560 225.284,202.000 226.104 C 202.440 226.925,202.800 227.879,202.800 228.224 C 202.800 229.534,208.276 241.725,210.122 244.525 C 210.524 245.135,210.442 245.370,209.600 246.004 C 209.050 246.419,208.314 246.993,207.965 247.279 C 207.616 247.566,207.058 247.980,206.725 248.200 C 206.392 248.420,205.328 249.136,204.360 249.792 C 203.392 250.447,202.301 251.167,201.935 251.392 C 201.570 251.616,200.490 252.349,199.535 253.019 C 198.581 253.689,197.485 254.359,197.100 254.506 C 196.715 254.654,196.400 254.948,196.400 255.160 C 196.400 255.373,196.041 255.660,195.602 255.799 C 195.164 255.938,194.579 256.266,194.302 256.526 C 191.499 259.171,188.487 260.300,187.985 258.895 C 187.770 258.293,187.326 257.322,186.997 256.738 C 186.669 256.154,186.400 255.414,186.400 255.092 C 186.400 254.771,186.040 254.050,185.600 253.491 C 185.160 252.931,184.800 252.230,184.800 251.931 C 184.800 251.632,184.440 250.716,184.000 249.896 C 183.560 249.075,183.199 248.087,183.197 247.701 C 183.196 247.316,182.837 246.460,182.400 245.800 C 181.963 245.140,181.603 244.240,181.600 243.800 C 181.597 243.360,181.237 242.460,180.800 241.800 C 180.363 241.140,180.003 240.240,180.000 239.800 C 179.997 239.360,179.743 238.517,179.435 237.927 C 179.127 237.337,178.751 236.257,178.598 235.527 C 178.446 234.797,178.090 233.833,177.807 233.384 C 177.523 232.935,177.079 231.543,176.819 230.291 C 176.559 229.039,176.189 227.917,175.996 227.798 C 175.804 227.679,175.524 226.731,175.374 225.691 C 175.224 224.651,174.879 223.254,174.608 222.588 C 174.336 221.921,173.981 220.301,173.818 218.988 C 173.655 217.674,173.294 216.052,173.016 215.382 C 172.737 214.712,172.379 212.732,172.220 210.982 C 172.060 209.232,171.675 206.573,171.365 205.074 C 170.599 201.375,170.600 189.514,171.367 186.458 C 171.678 185.216,172.061 183.035,172.216 181.610 C 172.372 180.186,172.730 178.656,173.011 178.210 C 173.293 177.765,173.653 176.594,173.812 175.609 C 173.971 174.624,174.331 173.454,174.611 173.009 C 174.892 172.564,175.243 171.617,175.392 170.905 C 175.540 170.192,175.830 169.505,176.037 169.377 C 176.243 169.250,176.676 168.573,176.998 167.873 C 177.320 167.173,177.810 166.240,178.087 165.800 C 178.364 165.360,179.185 164.059,179.911 162.908 C 181.380 160.582,183.698 157.897,186.366 155.432 C 187.337 154.534,188.561 153.395,189.084 152.900 C 189.608 152.405,190.214 152.000,190.431 152.000 C 190.648 152.000,190.922 151.746,191.041 151.437 C 191.160 151.127,191.785 150.655,192.429 150.388 C 193.073 150.121,193.600 149.757,193.600 149.578 C 193.600 149.400,193.979 149.134,194.441 148.987 C 195.247 148.731,197.668 147.258,198.683 146.406 C 198.949 146.183,199.297 146.000,199.457 146.000 C 199.617 146.000,200.479 145.660,201.374 145.245 C 206.504 142.862,207.612 142.400,208.195 142.400 C 208.550 142.400,209.328 142.147,209.925 141.839 C 210.522 141.530,211.908 141.147,213.005 140.987 C 214.102 140.827,215.450 140.472,216.000 140.198 C 216.550 139.924,218.620 139.510,220.600 139.278 C 222.580 139.045,224.650 138.674,225.200 138.453 C 227.224 137.639,260.800 137.882,260.800 138.711 M313.600 179.720 C 313.600 211.636,313.713 221.553,314.080 221.920 C 314.440 222.280,319.298 222.400,333.480 222.400 C 352.578 222.400,354.083 222.512,352.023 223.786 C 351.816 223.914,351.534 224.869,351.398 225.909 C 351.261 226.949,350.897 228.430,350.589 229.200 C 350.280 229.970,349.906 231.500,349.755 232.600 C 349.605 233.700,349.253 234.960,348.972 235.400 C 348.692 235.840,348.345 237.100,348.202 238.200 C 348.058 239.300,347.693 240.740,347.391 241.400 C 347.089 242.060,346.739 243.095,346.613 243.700 L 346.385 244.800 316.392 244.800 L 286.400 244.800 286.400 191.400 L 286.400 138.000 300.000 138.000 L 313.600 138.000 313.600 179.720 " stroke="none" fill="#9cacd4" fill-rule="evenodd"></path><path id="path3" d="M48.267 137.467 C 47.745 137.989,47.956 244.996,48.480 245.520 C 48.835 245.875,52.524 246.000,62.600 246.000 C 72.676 246.000,76.365 245.875,76.720 245.520 C 77.085 245.155,77.206 237.405,77.227 213.220 C 77.247 190.039,77.372 181.644,77.688 182.300 C 77.927 182.795,78.364 183.200,78.658 183.200 C 79.020 183.200,78.915 182.878,78.337 182.214 C 77.865 181.671,77.327 181.322,77.140 181.437 C 76.953 181.553,76.800 195.835,76.800 213.175 C 76.800 239.367,76.707 244.779,76.253 245.156 C 75.862 245.481,71.821 245.581,62.153 245.505 L 48.600 245.400 48.600 191.600 L 48.600 137.800 62.687 137.695 L 76.773 137.590 78.287 139.567 C 79.119 140.655,80.520 142.552,81.400 143.782 C 82.280 145.013,83.720 147.006,84.600 148.211 C 87.706 152.465,89.273 154.638,91.805 158.200 C 93.212 160.180,94.602 162.070,94.894 162.400 C 95.186 162.730,95.960 163.810,96.613 164.800 C 98.150 167.131,98.169 167.157,99.591 168.789 L 100.800 170.178 101.900 168.939 C 102.505 168.258,103.360 167.200,103.800 166.589 C 104.702 165.335,112.199 155.722,113.894 153.645 C 114.502 152.900,115.168 152.002,115.374 151.649 C 115.749 151.005,120.943 144.339,123.307 141.467 C 124.001 140.624,124.889 139.407,125.281 138.762 L 125.994 137.590 140.297 137.695 L 154.600 137.800 154.600 191.600 L 154.600 245.400 141.047 245.505 C 131.379 245.581,127.338 245.481,126.947 245.156 C 126.493 244.779,126.400 239.367,126.400 213.175 C 126.400 195.812,126.244 181.551,126.053 181.433 C 125.862 181.315,124.917 182.148,123.953 183.284 C 122.989 184.420,121.930 185.635,121.600 185.984 C 121.270 186.334,119.749 188.145,118.220 190.010 C 116.691 191.874,115.161 193.688,114.820 194.040 C 113.781 195.113,111.944 197.237,108.800 201.002 C 107.150 202.979,105.530 204.886,105.200 205.241 C 104.870 205.595,103.893 206.721,103.028 207.743 C 100.769 210.413,100.866 210.475,94.174 202.032 C 92.706 200.180,91.342 198.470,91.144 198.232 C 90.946 197.994,89.579 196.270,88.105 194.400 C 86.632 192.530,85.219 190.820,84.967 190.600 C 84.714 190.380,83.785 189.210,82.901 188.000 C 80.728 185.023,79.201 183.307,79.200 183.842 C 79.200 184.084,79.605 184.752,80.100 185.326 C 80.595 185.899,81.360 186.846,81.800 187.430 C 82.240 188.014,82.915 188.781,83.300 189.134 C 83.685 189.488,84.000 190.013,84.000 190.301 C 84.000 190.589,84.250 190.921,84.556 191.039 C 84.862 191.156,86.060 192.590,87.218 194.226 C 88.377 195.862,89.433 197.200,89.566 197.200 C 89.699 197.200,90.796 198.505,92.002 200.100 C 93.209 201.695,94.531 203.360,94.940 203.800 C 95.349 204.240,95.980 205.043,96.342 205.583 C 99.984 211.026,101.292 211.067,105.400 205.868 C 106.060 205.032,107.050 203.854,107.600 203.249 C 109.044 201.660,111.274 199.032,112.200 197.825 C 112.640 197.252,113.675 196.052,114.500 195.159 C 115.325 194.266,116.000 193.378,116.000 193.187 C 116.000 192.996,116.254 192.696,116.564 192.520 C 116.874 192.344,118.060 191.030,119.200 189.600 C 120.340 188.170,121.526 186.856,121.836 186.680 C 122.146 186.504,122.400 186.165,122.400 185.927 C 122.400 185.689,122.997 184.932,123.726 184.244 C 124.455 183.556,125.260 182.635,125.514 182.197 C 125.866 181.590,125.979 188.971,125.988 213.220 C 125.997 237.422,126.115 245.155,126.480 245.520 C 127.222 246.262,154.134 246.203,154.752 245.457 C 155.083 245.060,155.176 230.553,155.101 191.157 L 155.000 137.400 141.000 137.288 C 124.667 137.158,125.714 137.014,124.026 139.620 C 123.298 140.744,122.454 141.758,122.151 141.874 C 121.848 141.990,121.600 142.258,121.600 142.470 C 121.600 142.830,118.731 146.631,117.401 148.034 C 117.070 148.382,116.800 148.868,116.800 149.114 C 116.800 149.359,116.572 149.704,116.293 149.880 C 115.836 150.169,114.633 151.608,113.017 153.800 C 111.562 155.775,107.149 161.458,106.650 162.000 C 106.347 162.330,105.153 163.860,103.998 165.400 C 102.842 166.940,101.740 168.260,101.548 168.333 C 101.357 168.407,101.200 168.722,101.200 169.033 C 101.200 169.989,100.647 169.665,99.604 168.097 C 98.337 166.193,95.783 162.792,95.001 161.966 C 94.670 161.618,94.400 161.132,94.400 160.887 C 94.400 160.642,93.953 159.937,93.406 159.321 C 91.680 157.374,91.410 157.045,91.000 156.390 C 89.209 153.527,88.674 152.800,88.360 152.800 C 88.162 152.800,88.000 152.613,88.000 152.384 C 88.000 151.909,86.851 150.213,84.759 147.600 C 83.966 146.610,83.243 145.620,83.152 145.400 C 82.696 144.295,81.075 142.000,80.751 142.000 C 80.547 142.000,80.209 141.550,80.000 141.000 C 79.791 140.450,79.435 140.000,79.210 140.000 C 78.984 140.000,78.800 139.764,78.800 139.475 C 78.800 137.274,78.282 137.200,62.851 137.200 C 54.976 137.200,48.413 137.320,48.267 137.467 M221.600 137.471 C 221.050 137.560,220.240 137.797,219.800 137.996 C 219.360 138.196,218.640 138.437,218.200 138.533 C 217.561 138.672,217.601 138.716,218.400 138.749 C 218.950 138.772,220.390 138.525,221.600 138.200 C 223.390 137.720,227.281 137.609,242.481 137.605 L 261.162 137.600 261.741 138.900 C 262.059 139.615,262.504 140.920,262.731 141.800 C 262.958 142.680,263.457 144.300,263.841 145.400 C 264.225 146.500,264.846 148.300,265.222 149.400 C 265.597 150.500,266.121 152.030,266.386 152.800 C 266.651 153.570,267.107 155.010,267.400 156.000 C 267.693 156.990,268.170 158.393,268.461 159.118 C 269.296 161.202,269.455 161.187,247.000 161.203 C 234.044 161.213,225.597 161.375,224.600 161.632 C 223.720 161.860,222.337 162.214,221.526 162.419 C 217.483 163.443,208.400 172.761,208.400 175.884 C 208.400 176.382,209.592 175.056,209.836 174.286 C 210.572 171.968,216.397 165.349,218.591 164.338 C 219.036 164.133,219.850 163.706,220.400 163.389 C 220.950 163.071,221.811 162.809,222.313 162.806 C 222.815 162.803,223.872 162.530,224.662 162.200 C 225.876 161.692,229.344 161.600,247.169 161.600 C 263.024 161.600,268.359 161.481,268.720 161.120 C 269.426 160.414,269.307 158.996,268.400 157.304 C 267.960 156.484,267.600 155.354,267.600 154.795 C 267.600 154.236,267.345 153.414,267.033 152.969 C 266.721 152.523,266.341 151.448,266.188 150.580 C 266.035 149.711,265.674 148.621,265.384 148.158 C 265.095 147.696,264.729 146.616,264.570 145.758 C 264.412 144.901,263.949 143.573,263.541 142.806 C 263.134 142.039,262.800 140.938,262.800 140.360 C 262.800 139.781,262.427 138.834,261.971 138.254 L 261.142 137.200 241.871 137.254 C 231.272 137.284,222.150 137.382,221.600 137.471 M285.784 137.627 C 285.639 137.861,285.628 138.161,285.760 138.293 C 285.892 138.425,286.000 138.323,286.000 138.067 C 286.000 137.251,313.843 137.415,314.157 138.233 C 314.291 138.581,314.400 157.481,314.400 180.233 L 314.400 221.600 333.100 221.504 L 351.800 221.408 333.300 221.300 L 314.800 221.192 314.800 179.970 C 314.800 152.319,314.664 138.493,314.386 137.974 C 313.901 137.068,286.336 136.733,285.784 137.627 M213.340 139.387 C 212.879 139.710,211.714 140.091,210.751 140.234 C 209.788 140.377,208.640 140.716,208.200 140.987 C 207.760 141.258,206.743 141.601,205.940 141.750 C 205.137 141.899,204.276 142.268,204.026 142.569 C 203.776 142.870,202.966 143.230,202.226 143.369 C 201.486 143.508,200.670 143.875,200.413 144.185 C 200.155 144.495,199.430 144.862,198.800 145.000 C 198.170 145.138,197.441 145.510,197.179 145.826 C 196.917 146.142,196.482 146.400,196.213 146.400 C 195.944 146.400,195.398 146.760,195.000 147.200 C 194.602 147.640,194.050 148.000,193.774 148.000 C 193.264 148.000,189.593 150.718,188.284 152.064 C 187.891 152.469,187.426 152.800,187.250 152.800 C 186.859 152.800,183.827 155.781,182.200 157.766 C 181.540 158.571,180.595 159.700,180.100 160.274 C 179.605 160.847,179.200 161.561,179.200 161.858 C 179.200 162.156,179.011 162.400,178.780 162.400 C 178.548 162.400,178.096 163.030,177.774 163.800 C 177.452 164.570,177.031 165.200,176.838 165.200 C 176.645 165.200,176.363 165.695,176.212 166.300 C 176.061 166.905,175.663 167.705,175.328 168.077 C 174.992 168.449,174.785 168.954,174.866 169.199 C 174.948 169.445,175.810 168.240,176.781 166.523 C 178.426 163.616,179.300 162.251,180.800 160.245 C 183.329 156.865,190.850 150.263,195.310 147.509 C 197.802 145.970,202.670 143.600,203.340 143.600 C 203.649 143.600,204.122 143.335,204.391 143.011 C 204.660 142.686,205.537 142.303,206.340 142.158 C 207.143 142.013,208.160 141.706,208.600 141.475 C 209.040 141.245,210.300 140.824,211.400 140.540 C 212.500 140.256,214.300 139.760,215.400 139.439 L 217.400 138.854 215.789 138.827 C 214.903 138.812,213.801 139.064,213.340 139.387 M232.880 164.080 C 232.530 164.430,232.400 167.564,232.400 175.680 L 232.400 186.800 219.036 186.800 L 205.672 186.800 206.231 184.700 C 206.539 183.545,206.794 182.150,206.798 181.600 C 206.802 181.050,207.163 180.060,207.600 179.400 C 208.037 178.740,208.380 177.750,208.363 177.200 L 208.331 176.200 208.012 177.200 C 207.836 177.750,207.403 178.740,207.049 179.400 C 206.695 180.060,206.404 180.983,206.402 181.451 C 206.401 181.919,206.130 182.949,205.800 183.738 C 205.470 184.528,205.200 185.632,205.200 186.192 L 205.200 187.211 218.900 187.105 L 232.600 187.000 232.800 175.600 L 233.000 164.200 248.373 164.095 C 260.407 164.013,263.816 164.100,264.067 164.495 C 264.682 165.464,264.472 244.642,263.853 245.156 C 263.462 245.481,259.005 245.580,248.153 245.505 L 233.000 245.400 232.800 227.600 L 232.600 209.800 216.024 209.696 C 197.707 209.580,198.596 209.446,199.382 212.212 C 199.693 213.305,200.126 215.280,200.345 216.600 C 201.056 220.892,203.139 227.574,205.706 233.800 C 207.662 238.546,208.385 239.824,208.394 238.554 C 208.397 238.089,208.040 237.250,207.600 236.691 C 207.160 236.131,206.800 235.321,206.800 234.891 C 206.800 234.460,206.440 233.650,206.000 233.091 C 205.560 232.531,205.194 231.742,205.186 231.337 C 205.179 230.932,204.825 229.880,204.400 229.000 C 203.975 228.120,203.621 226.994,203.614 226.499 C 203.606 226.003,203.240 224.925,202.800 224.104 C 202.360 223.284,202.000 222.015,202.000 221.286 C 202.000 220.557,201.703 219.386,201.340 218.684 C 200.977 217.982,200.538 215.998,200.364 214.274 C 200.190 212.550,199.835 210.884,199.575 210.570 C 199.167 210.078,201.387 210.000,215.751 210.000 L 232.400 210.000 232.400 227.367 C 232.400 236.919,232.509 245.019,232.643 245.367 C 233.058 246.451,263.804 246.314,264.386 245.226 C 264.961 244.151,264.961 165.449,264.386 164.374 C 263.875 163.420,233.820 163.140,232.880 164.080 M174.432 170.451 C 174.414 170.809,174.130 171.326,173.800 171.600 C 173.470 171.874,173.200 172.484,173.200 172.955 C 173.200 173.426,172.865 174.439,172.456 175.206 C 172.047 175.973,171.582 177.648,171.424 178.929 C 171.265 180.209,170.880 181.869,170.568 182.616 C 170.180 183.543,170.019 185.343,170.061 188.287 L 170.123 192.600 170.413 188.200 C 170.573 185.780,170.905 183.293,171.152 182.674 C 171.398 182.055,171.600 181.118,171.600 180.592 C 171.600 179.554,173.612 173.073,174.379 171.640 C 174.639 171.154,174.764 170.541,174.658 170.278 C 174.544 170.000,174.450 170.072,174.432 170.451 M170.061 203.086 C 170.020 206.408,170.183 208.521,170.572 209.686 C 170.887 210.629,171.220 211.940,171.312 212.600 C 171.473 213.752,171.483 213.744,171.540 212.397 C 171.573 211.626,171.406 210.366,171.170 209.597 C 170.933 208.829,170.601 205.950,170.431 203.200 L 170.123 198.200 170.061 203.086 M171.646 215.611 C 171.621 216.607,171.852 217.782,172.161 218.222 C 172.469 218.662,172.804 219.468,172.906 220.011 C 173.089 220.991,173.092 220.990,173.146 219.926 C 173.175 219.335,172.995 218.345,172.745 217.726 C 172.495 217.107,172.155 215.970,171.991 215.200 L 171.692 213.800 171.646 215.611 M173.241 222.411 C 173.218 223.187,173.452 224.182,173.761 224.622 C 174.069 225.062,174.404 225.868,174.506 226.411 C 174.682 227.350,174.694 227.344,174.746 226.274 C 174.775 225.654,174.589 224.754,174.331 224.274 C 174.072 223.793,173.731 222.860,173.571 222.200 L 173.282 221.000 173.241 222.411 M352.593 222.126 C 353.373 222.716,353.374 222.756,352.645 224.782 C 351.779 227.192,351.994 227.864,352.972 225.802 C 353.862 223.926,353.676 221.855,352.600 221.667 C 351.804 221.529,351.804 221.531,352.593 222.126 M174.822 228.424 C 174.810 228.986,175.064 229.796,175.387 230.224 C 175.710 230.651,175.980 231.457,175.987 232.015 C 175.994 232.574,176.346 233.709,176.769 234.539 C 177.192 235.368,177.656 236.746,177.800 237.600 C 177.944 238.455,178.318 239.366,178.631 239.626 C 179.375 240.244,179.363 239.604,178.602 238.146 C 178.274 237.516,177.998 236.730,177.989 236.400 C 177.980 236.070,177.625 235.080,177.200 234.200 C 176.775 233.320,176.411 232.240,176.391 231.800 C 176.328 230.396,174.849 227.212,174.822 228.424 M351.667 228.520 C 351.630 229.136,351.319 230.183,350.976 230.847 C 350.633 231.511,350.410 232.357,350.482 232.727 C 350.736 234.039,352.054 230.449,351.891 228.890 C 351.772 227.760,351.718 227.671,351.667 228.520 M350.067 234.513 C 350.030 235.125,349.742 236.243,349.427 236.998 C 349.112 237.752,348.737 239.141,348.594 240.085 C 348.451 241.028,347.943 242.610,347.467 243.600 L 346.600 245.400 316.644 245.503 C 294.847 245.577,286.540 245.482,286.144 245.154 C 285.806 244.873,285.600 244.856,285.600 245.108 C 285.600 245.944,287.546 246.000,316.827 246.000 L 346.789 246.000 347.749 244.500 C 348.278 243.675,348.809 242.100,348.929 241.000 C 349.050 239.900,349.442 238.419,349.799 237.709 C 350.184 236.945,350.385 235.803,350.292 234.909 C 350.176 233.800,350.117 233.695,350.067 234.513 M208.400 239.701 C 208.400 240.089,210.471 243.596,210.832 243.820 C 212.270 244.709,209.980 247.277,205.143 250.200 C 204.779 250.420,202.618 251.874,200.340 253.431 C 196.352 256.159,193.830 257.867,192.254 258.907 C 191.843 259.178,191.095 259.715,190.591 260.100 C 188.950 261.353,188.192 261.013,187.030 258.500 C 186.445 257.235,185.634 255.480,185.228 254.600 C 184.822 253.720,184.110 252.229,183.645 251.288 C 183.180 250.346,182.800 249.353,182.800 249.082 C 182.800 248.810,182.440 247.916,182.000 247.096 C 181.560 246.275,181.199 245.377,181.198 245.101 C 181.196 244.826,180.905 244.060,180.551 243.400 C 180.197 242.740,179.748 241.750,179.554 241.200 C 179.268 240.392,179.235 240.498,179.383 241.750 C 179.483 242.602,179.843 243.606,180.183 243.981 C 180.522 244.356,180.801 245.009,180.803 245.431 C 180.804 245.854,181.163 246.740,181.600 247.400 C 182.037 248.060,182.396 248.924,182.397 249.321 C 182.399 249.717,182.786 250.797,183.258 251.721 C 185.299 255.718,185.600 256.390,185.600 256.951 C 185.600 257.276,185.846 257.789,186.147 258.090 C 186.448 258.391,186.830 259.079,186.996 259.619 C 187.486 261.210,187.995 261.616,189.146 261.330 C 190.308 261.041,192.420 259.682,192.920 258.900 C 193.096 258.625,193.485 258.400,193.784 258.400 C 194.083 258.400,195.210 257.703,196.287 256.851 C 197.365 255.999,198.625 255.183,199.086 255.036 C 199.548 254.889,200.027 254.506,200.150 254.185 C 200.274 253.863,200.623 253.600,200.925 253.600 C 201.228 253.600,201.802 253.240,202.200 252.800 C 202.598 252.360,203.095 252.000,203.304 252.000 C 203.513 252.000,204.250 251.547,204.942 250.994 C 205.634 250.441,206.391 249.835,206.625 249.648 C 206.859 249.461,207.489 249.077,208.025 248.794 C 208.561 248.512,209.090 248.168,209.200 248.031 C 209.310 247.894,209.895 247.467,210.500 247.082 C 211.837 246.231,212.009 244.190,210.849 242.945 C 210.436 242.501,209.979 241.764,209.833 241.305 C 209.595 240.555,208.400 239.217,208.400 239.701 " stroke="none" fill="#748cc1" fill-rule="evenodd"></path><path id="path4" d="M285.699 191.451 C 285.605 241.758,285.639 244.732,286.300 245.251 C 286.920 245.737,286.943 245.727,286.501 245.161 C 286.110 244.659,285.981 233.070,285.900 191.361 L 285.797 138.200 285.699 191.451 M314.193 179.800 C 314.193 202.680,314.241 211.981,314.300 200.469 C 314.359 188.958,314.359 170.238,314.300 158.869 C 314.241 147.501,314.193 156.920,314.193 179.800 M264.192 204.800 C 264.192 226.910,264.241 235.955,264.300 224.900 C 264.359 213.845,264.359 195.755,264.300 184.700 C 264.241 173.645,264.192 182.690,264.192 204.800 M219.000 187.200 L 205.400 187.416 218.876 187.508 C 227.530 187.567,232.441 187.457,232.600 187.200 C 232.736 186.980,232.792 186.841,232.724 186.892 C 232.656 186.943,226.480 187.081,219.000 187.200 M170.137 195.400 C 170.139 197.160,170.209 197.830,170.293 196.889 C 170.378 195.949,170.377 194.509,170.291 193.689 C 170.205 192.870,170.136 193.640,170.137 195.400 M170.493 205.200 C 170.493 205.970,170.575 206.285,170.676 205.900 C 170.776 205.515,170.776 204.885,170.676 204.500 C 170.575 204.115,170.493 204.430,170.493 205.200 M324.128 221.900 C 329.368 221.963,337.828 221.963,342.928 221.900 C 348.027 221.836,343.740 221.785,333.400 221.785 C 323.060 221.785,318.887 221.837,324.128 221.900 M210.262 243.600 C 210.516 243.930,210.806 244.650,210.907 245.200 L 211.091 246.200 211.146 245.149 C 211.176 244.570,210.886 243.852,210.500 243.549 C 209.891 243.071,209.860 243.078,210.262 243.600 " stroke="none" fill="#849ccc" fill-rule="evenodd"></path></g></svg>